<!-- frontend/src/assets/default_news.svg
     Назначение: Заглушка для новостей без фото. Нейтральная картинка под тёмную тему. -->
<svg width="1200" height="675" viewBox="0 0 1200 675" xmlns="http://www.w3.org/2000/svg" role="img" aria-label="Нет изображения">
  <defs>
    <linearGradient id="g" x1="0" y1="0" x2="1" y2="1">
      <stop offset="0%" stop-color="#1a1f29"/>
      <stop offset="100%" stop-color="#0f141b"/>
    </linearGradient>
  </defs>
  <rect width="1200" height="675" fill="url(#g)"/>
  <g opacity="0.18">
    <circle cx="1020" cy="120" r="140" fill="#4b5563"/>
    <rect x="160" y="470" width="420" height="24" rx="6" fill="#9aa4b2"/>
    <rect x="160" y="510" width="320" height="20" rx="5" fill="#9aa4b2"/>
    <rect x="160" y="550" width="220" height="16" rx="4" fill="#9aa4b2"/>
  </g>
  <g fill="#9aa4b2" opacity="0.35">
    <path d="M220 180h240a10 10 0 0 1 10 10v140a10 10 0 0 1-10 10H220a10 10 0 0 1-10-10V190a10 10 0 0 1 10-10zm20 30h200v20H240v-20zm0 40h200v20H240v-20zm0 40h160v20H240v-20z"/>
    <path d="M540 280h360l-90-120-110 150-60-80z"/>
  </g>
</svg>
